<svg width="352" height="263" viewBox="0 0 352 263" fill="none" xmlns="http://www.w3.org/2000/svg">
<path d="M352 230.525H0V230.701H352V230.525Z" fill="#C2C3C6"/>
<path d="M316.73 241.852H293.413V242.028H316.73V241.852Z" fill="#C2C3C6"/>
<path d="M233.178 243.767H227.061V243.943H233.178V243.767Z" fill="#C2C3C6"/>
<path d="M292.709 235.319H279.199V235.495H292.709V235.319Z" fill="#C2C3C6"/>
<path d="M67.3384 236.502H36.9326V236.678H67.3384V236.502Z" fill="#C2C3C6"/>
<path d="M78.0667 236.502H73.6104V236.678H78.0667V236.502Z" fill="#C2C3C6"/>
<path d="M158.506 239.473H92.5557V239.649H158.506V239.473Z" fill="#C2C3C6"/>
<path d="M166.849 199.126H30.9132C29.8483 199.125 28.8276 198.7 28.0753 197.947C27.3229 197.193 26.9004 196.171 26.9004 195.107V4.01984C26.9004 2.95493 27.3229 1.93353 28.0753 1.17987C28.8276 0.426206 29.8483 0.00186499 30.9132 0L166.849 0C167.915 0 168.937 0.423518 169.691 1.17738C170.445 1.93125 170.868 2.95371 170.868 4.01984V195.107C170.868 195.634 170.764 196.157 170.562 196.645C170.36 197.133 170.064 197.576 169.691 197.949C169.318 198.322 168.875 198.618 168.387 198.82C167.899 199.022 167.376 199.126 166.849 199.126ZM30.9132 0.176C29.895 0.177865 28.9191 0.583663 28.1997 1.30432C27.4804 2.02498 27.0764 3.00161 27.0764 4.01984V195.107C27.0764 196.125 27.4804 197.101 28.1997 197.822C28.9191 198.543 29.895 198.949 30.9132 198.95H166.849C167.867 198.949 168.844 198.543 169.565 197.822C170.285 197.102 170.691 196.125 170.692 195.107V4.01984C170.691 3.00096 170.285 2.02435 169.565 1.30389C168.844 0.583433 167.867 0.177861 166.849 0.176H30.9132Z" fill="#C2C3C6"/>
<path d="M319.13 199.126H183.188C182.122 199.125 181.101 198.7 180.347 197.947C179.594 197.193 179.17 196.172 179.168 195.107V4.01984C179.17 2.95428 179.594 1.9329 180.347 1.17944C181.101 0.425977 182.122 0.00186124 183.188 0L319.13 0C320.194 0.00372572 321.213 0.428888 321.964 1.18235C322.714 1.93581 323.136 2.95615 323.136 4.01984V195.107C323.136 196.17 322.714 197.191 321.964 197.944C321.213 198.697 320.194 199.123 319.13 199.126ZM183.188 0.176C182.169 0.177861 181.192 0.583433 180.472 1.30389C179.751 2.02435 179.346 3.00096 179.344 4.01984V195.107C179.346 196.125 179.751 197.102 180.472 197.822C181.192 198.543 182.169 198.949 183.188 198.95H319.13C320.149 198.949 321.126 198.543 321.846 197.822C322.567 197.102 322.972 196.125 322.974 195.107V4.01984C322.972 3.00096 322.567 2.02435 321.846 1.30389C321.126 0.583433 320.149 0.177861 319.13 0.176H183.188Z" fill="#C2C3C6"/>
<path d="M44.6332 154.479L307.373 154.479V13.6365L44.6332 13.6365V154.479Z" fill="#F4F5F5"/>
<path d="M230.863 56.1651C233.179 52.3283 239.219 49.2236 244.408 49.2236C245.506 49.2061 246.599 49.3776 247.639 49.7305C251.368 46.7888 255.944 45.1229 260.691 44.9785C266.14 44.9785 269.013 47.7945 267.907 51.6032C272.878 51.8496 275.067 55.0035 272.779 58.8684C270.4 62.8883 264.078 66.176 258.657 66.176H227.434C223.598 66.176 221.845 63.8598 223.534 61.0086C224.837 58.784 227.808 56.9043 230.863 56.1651Z" fill="white"/>
<path d="M167.876 37.9388C169.284 35.5945 172.98 33.7148 176.141 33.7148C176.811 33.7044 177.478 33.8092 178.112 34.0245C180.393 32.232 183.189 31.2179 186.088 31.1311C189.411 31.1311 191.164 32.8559 190.488 35.1721C193.523 35.3199 194.86 37.2841 193.466 39.6073C192.072 41.9305 188.151 44.0495 184.842 44.0495H165.785C163.441 44.0495 162.371 42.6415 163.399 40.9026C164.47 39.3914 166.066 38.3344 167.876 37.9388Z" fill="white"/>
<path d="M76.3624 51.8073C77.7704 49.463 81.4664 47.5833 84.6274 47.5833C85.2937 47.5672 85.958 47.6648 86.5915 47.8719C88.867 46.0734 91.6616 45.0563 94.5608 44.9714C97.8837 44.9714 99.6366 46.7033 98.9608 49.0194C101.995 49.1673 103.333 51.1314 101.939 53.4546C100.545 55.7778 96.6235 57.8969 93.3147 57.8969H74.2715C71.9272 57.8969 70.8571 56.4889 71.892 54.743C72.9625 53.2397 74.5576 52.1923 76.3624 51.8073Z" fill="white"/>
<path d="M115.428 41.4375H93.7021V141.567H115.428V41.4375Z" fill="#D6D7D9"/>
<path d="M132.592 141.567H112.992V61.5364L132.592 81.0513V141.567Z" fill="#D6D7D9"/>
<path d="M87.0008 74.5112H65.2754V141.567H87.0008V74.5112Z" fill="#D6D7D9"/>
<path d="M149.925 66.1548H138.851V141.574H149.925V66.1548Z" fill="#D6D7D9"/>
<path d="M165.709 85.4163H154.635V141.567H165.709V85.4163Z" fill="#D6D7D9"/>
<path d="M174.086 103.861H163.012V141.568H174.086V103.861Z" fill="#D6D7D9"/>
<path d="M220.042 103.861H208.968V141.568H220.042V103.861Z" fill="#D6D7D9"/>
<path d="M209.447 115.766H198.373V141.575H209.447V115.766Z" fill="#D6D7D9"/>
<path d="M62.2331 103.861H51.1592V141.568H62.2331V103.861Z" fill="#D6D7D9"/>
<path d="M157.766 97.5886H57.5166V141.568H157.766V97.5886Z" fill="#D6D7D9"/>
<path d="M220.043 123.939H119.793V141.567H220.043V123.939Z" fill="#D6D7D9"/>
<path d="M206.702 154.472H240.354V54.342H206.702V154.472Z" fill="#EBEBEC"/>
<path d="M180.104 154.472H210.475V74.4409L180.104 93.9558V154.472Z" fill="#EBEBEC"/>
<path d="M250.745 154.472H284.396V87.4159H250.745V154.472Z" fill="#EBEBEC"/>
<path d="M153.261 154.472H170.418V79.0524H153.261V154.472Z" fill="#EBEBEC"/>
<path d="M128.797 154.472H145.953V104.15H128.797V154.472Z" fill="#EBEBEC"/>
<path d="M115.837 154.472H132.993V116.766H115.837V154.472Z" fill="#EBEBEC"/>
<path d="M44.6326 154.472H61.7891L61.7891 116.766H44.6326V154.472Z" fill="#EBEBEC"/>
<path d="M61.0437 154.472H78.2002V128.663H61.0437V154.472Z" fill="#EBEBEC"/>
<path d="M289.112 154.472H306.269V116.766H289.112V154.472Z" fill="#EBEBEC"/>
<path d="M141.109 154.472L296.411 154.472V110.493L141.109 110.493V154.472Z" fill="#EBEBEC"/>
<path d="M44.6331 154.472L199.936 154.472V136.844L44.6331 136.844V154.472Z" fill="#EBEBEC"/>
<path d="M306.268 154.479H307.373V13.6365H306.268V154.479Z" fill="#C2C3C6"/>
<path d="M40.6699 197.521H75.3208L67.6472 230.525H48.3435L40.6699 197.521Z" fill="#EBEBEC"/>
<path d="M40.3114 198.993H75.6804C76.0712 198.993 76.4462 198.838 76.7233 198.562C77.0003 198.286 77.1569 197.912 77.1588 197.521C77.1588 197.129 77.003 196.753 76.7258 196.476C76.4485 196.199 76.0725 196.043 75.6804 196.043H40.3114C39.9193 196.043 39.5433 196.199 39.266 196.476C38.9888 196.753 38.833 197.129 38.833 197.521C38.8349 197.912 38.9914 198.286 39.2685 198.562C39.5456 198.838 39.9205 198.993 40.3114 198.993Z" fill="#C2C3C6"/>
<path d="M42.8453 177.563H82.5509C82.5509 177.563 93.0264 170.164 82.0581 170.523C84.2334 161.097 78.0945 150.769 64.2398 150.368C50.3851 149.966 55.2568 165.349 55.2568 165.349C55.2568 165.349 31.9825 159.801 39.0648 171.262C27.491 171.833 33.4609 174.789 42.8453 177.563Z" fill="#D6D7D9"/>
<path d="M275.715 170.431H112.105V173.564H275.715V170.431Z" fill="#EBEBEC"/>
<path d="M275.715 173.572H293.413V170.439H275.715V173.572Z" fill="#D6D7D9"/>
<path d="M175.999 262.317C251.385 262.317 312.497 258.75 312.497 254.348C312.497 249.947 251.385 246.379 175.999 246.379C100.612 246.379 39.5 249.947 39.5 254.348C39.5 258.75 100.612 262.317 175.999 262.317Z" fill="#EBEBEC"/>
<path d="M277.806 140.54H171.298V143.553H277.806V140.54Z" fill="#3D79F2"/>
<path opacity="0.2" d="M277.805 140.54H253.088V143.553H277.805V140.54Z" fill="#313640"/>
<path d="M256.145 256.108L250.583 143.546H251.977L257.539 256.108H256.145Z" fill="#3D79F2"/>
<path opacity="0.7" d="M256.145 256.108L250.583 143.546H251.977L257.539 256.108H256.145Z" fill="white"/>
<path d="M280.863 256.108L275.294 143.546H276.695L282.256 256.108H280.863Z" fill="#3D79F2"/>
<path d="M280.863 256.108L275.294 143.546H276.695L282.256 256.108H280.863Z" fill="#3D79F2"/>
<path opacity="0.7" d="M280.863 256.108L275.294 143.546H276.695L282.256 256.108H280.863Z" fill="white"/>
<path d="M192.953 256.108L198.521 143.546H197.12L191.559 256.108H192.953Z" fill="#3D79F2"/>
<path opacity="0.7" d="M192.953 256.108L198.521 143.546H197.12L191.559 256.108H192.953Z" fill="white"/>
<path d="M168.243 256.108L173.804 143.546H172.41L166.842 256.108H168.243Z" fill="#3D79F2"/>
<path opacity="0.7" d="M168.243 256.108L173.804 143.546H172.41L166.842 256.108H168.243Z" fill="white"/>
<path d="M234.009 117.568H268.224C268.477 117.561 268.728 117.611 268.959 117.715C269.191 117.818 269.395 117.972 269.559 118.166C269.723 118.359 269.841 118.587 269.904 118.832C269.968 119.077 269.976 119.333 269.927 119.581L267.048 138.512C266.953 139.064 266.671 139.566 266.249 139.934C265.827 140.302 265.291 140.513 264.732 140.532H230.517C230.263 140.539 230.011 140.489 229.779 140.385C229.547 140.281 229.341 140.127 229.177 139.933C229.013 139.739 228.894 139.51 228.83 139.265C228.766 139.019 228.758 138.761 228.807 138.512L231.686 119.581C231.785 119.031 232.07 118.531 232.493 118.165C232.915 117.799 233.45 117.588 234.009 117.568Z" fill="#3D79F2"/>
<path d="M233.482 117.568H267.724C267.978 117.561 268.229 117.611 268.46 117.715C268.691 117.818 268.896 117.972 269.06 118.166C269.223 118.359 269.341 118.587 269.405 118.832C269.469 119.077 269.477 119.333 269.428 119.581L266.549 138.512C266.454 139.064 266.171 139.566 265.75 139.934C265.328 140.302 264.792 140.513 264.233 140.532H229.99C229.736 140.539 229.484 140.489 229.252 140.385C229.02 140.281 228.814 140.127 228.65 139.933C228.486 139.739 228.367 139.51 228.303 139.265C228.239 139.019 228.231 138.761 228.279 138.512L231.159 119.581C231.257 119.031 231.541 118.53 231.964 118.163C232.387 117.797 232.923 117.587 233.482 117.568Z" fill="#3D79F2"/>
<path opacity="0.2" d="M233.482 117.568H267.724C267.978 117.561 268.229 117.611 268.46 117.715C268.691 117.818 268.896 117.972 269.06 118.166C269.223 118.359 269.341 118.587 269.405 118.832C269.469 119.077 269.477 119.333 269.428 119.581L266.549 138.512C266.454 139.064 266.171 139.566 265.75 139.934C265.328 140.302 264.792 140.513 264.233 140.532H229.99C229.736 140.539 229.484 140.489 229.252 140.385C229.02 140.281 228.814 140.127 228.65 139.933C228.486 139.739 228.367 139.51 228.303 139.265C228.239 139.019 228.231 138.761 228.279 138.512L231.159 119.581C231.257 119.031 231.541 118.53 231.964 118.163C232.387 117.797 232.923 117.587 233.482 117.568Z" fill="white"/>
<path opacity="0.8" d="M229.99 139.934C229.827 139.939 229.665 139.908 229.516 139.843C229.366 139.779 229.233 139.683 229.124 139.561C229.016 139.43 228.938 139.277 228.896 139.113C228.853 138.949 228.847 138.777 228.878 138.611L231.757 119.68C231.833 119.272 232.045 118.902 232.358 118.63C232.671 118.357 233.067 118.199 233.482 118.181H267.724C267.887 118.176 268.049 118.207 268.199 118.272C268.348 118.336 268.482 118.432 268.59 118.554C268.697 118.684 268.773 118.836 268.814 118.999C268.856 119.162 268.861 119.332 268.83 119.497L265.957 138.435C265.88 138.842 265.668 139.212 265.355 139.484C265.042 139.756 264.647 139.915 264.233 139.934H229.99Z" fill="white"/>
<path d="M219.993 139.779H265.408C265.503 139.778 265.598 139.797 265.684 139.837C265.771 139.876 265.848 139.934 265.909 140.007C265.971 140.08 266.015 140.166 266.039 140.258C266.063 140.35 266.067 140.446 266.049 140.54H219.12C219.157 140.332 219.264 140.144 219.422 140.006C219.581 139.867 219.783 139.787 219.993 139.779Z" fill="#3D79F2"/>
<path d="M182.521 246.985L178.037 249.512L172.489 238.769L176.974 236.242L182.521 246.985Z" fill="#FFAA00"/>
<path d="M177.494 248.625L182.718 246.055C182.76 246.032 182.807 246.017 182.855 246.012C182.904 246.007 182.952 246.011 182.999 246.025C183.045 246.039 183.089 246.061 183.126 246.092C183.164 246.123 183.195 246.16 183.218 246.203L185.499 250.209C185.607 250.425 185.626 250.675 185.55 250.904C185.475 251.134 185.312 251.324 185.098 251.434C183.26 252.3 182.338 252.617 180.043 253.75C178.635 254.454 175.263 256.179 173.313 257.136C171.362 258.094 170.497 256.144 171.201 255.559C174.523 252.955 176.016 250.976 176.833 249.301C176.969 249.006 177.202 248.767 177.494 248.625Z" fill="#313640"/>
<path opacity="0.2" d="M176.974 236.242L172.489 238.769L175.348 244.31L179.973 242.043L176.974 236.242Z" fill="#313640"/>
<path d="M173.32 130.944C173.32 130.944 158.839 160.054 154.495 174.268C149.743 189.827 172.32 242.514 172.32 242.514L180.564 238.902C180.564 238.902 165.78 186.729 168.35 180.942C175.39 164.954 191.835 131.282 191.835 131.282L173.32 130.944Z" fill="#313640"/>
<path opacity="0.3" d="M178.769 148.382C174.82 155.007 173.137 166.947 172.891 174.712C175.122 169.911 177.516 164.912 179.755 160.266C181.261 155.838 182.725 151.572 184.091 147.918C183.789 145.39 181.761 143.342 178.769 148.382Z" fill="#313640"/>
<path d="M181.627 239.494L172.623 244.218L170.039 241.17L180.698 235.488L181.627 239.494Z" fill="#3D79F2"/>
<path d="M176.242 250.244C176.653 250.028 177.04 249.768 177.396 249.47C177.415 249.455 177.429 249.435 177.437 249.413C177.444 249.39 177.445 249.366 177.439 249.343C177.433 249.32 177.421 249.299 177.403 249.282C177.386 249.266 177.364 249.255 177.34 249.252C177.143 249.252 175.383 248.97 174.925 249.477C174.873 249.534 174.837 249.603 174.818 249.678C174.8 249.753 174.8 249.832 174.82 249.906C174.842 250.022 174.893 250.131 174.968 250.222C175.043 250.313 175.14 250.383 175.249 250.427C175.591 250.491 175.945 250.426 176.242 250.244ZM177.023 249.456C176.27 250.033 175.65 250.308 175.327 250.195C175.254 250.168 175.191 250.121 175.144 250.06C175.097 250 175.067 249.927 175.059 249.85C175.047 249.814 175.045 249.776 175.052 249.739C175.06 249.702 175.077 249.667 175.101 249.639C175.348 249.364 176.312 249.378 177.023 249.456Z" fill="#3D79F2"/>
<path d="M177.409 249.483C177.409 249.483 177.445 249.483 177.452 249.441C177.464 249.425 177.471 249.405 177.471 249.385C177.471 249.364 177.464 249.345 177.452 249.329C177.452 249.272 176.881 247.878 176.184 247.66C176.097 247.629 176.003 247.62 175.911 247.633C175.819 247.647 175.731 247.683 175.656 247.738C175.563 247.784 175.49 247.862 175.447 247.957C175.405 248.052 175.397 248.158 175.424 248.258C175.565 248.815 176.733 249.448 177.332 249.49C177.345 249.495 177.358 249.496 177.371 249.495C177.385 249.494 177.398 249.49 177.409 249.483ZM175.846 247.906C175.891 247.888 175.939 247.878 175.987 247.878C176.036 247.878 176.084 247.888 176.128 247.906C176.543 248.033 176.952 248.779 177.156 249.23C176.586 249.089 175.748 248.575 175.67 248.209C175.67 248.139 175.67 248.047 175.797 247.949L175.846 247.906Z" fill="#3D79F2"/>
<path d="M183.113 91.9004C182.212 93.7238 181.304 95.3218 180.297 96.9762C179.29 98.6306 178.27 100.208 177.143 101.77C176.594 102.552 176.01 103.326 175.44 104.101C174.869 104.875 174.243 105.621 173.595 106.368C172.322 107.889 170.961 109.335 169.519 110.697C169.167 111.049 168.752 111.401 168.371 111.718C167.991 112.035 167.618 112.422 167.175 112.711L165.9 113.647C165.76 113.746 165.795 113.738 165.365 114.02C165.028 114.231 164.67 114.406 164.295 114.541C163.347 114.886 162.319 114.951 161.334 114.729C160.35 114.507 159.45 114.007 158.741 113.288C158.598 113.144 158.464 112.991 158.339 112.83C158.234 112.705 158.14 112.571 158.058 112.429C157.735 111.88 157.453 111.308 157.213 110.718C156.801 109.707 156.471 108.664 156.227 107.6C155.802 105.673 155.517 103.718 155.376 101.749C155.229 99.8382 155.191 97.9202 155.263 96.0047C155.283 95.4594 155.499 94.9396 155.871 94.5407C156.244 94.1418 156.747 93.8906 157.29 93.8333C157.833 93.776 158.378 93.9163 158.825 94.2285C159.273 94.5408 159.593 95.0039 159.726 95.533V95.6105C160.523 99.0035 161.541 102.341 162.775 105.6C163.046 106.29 163.373 106.956 163.753 107.593C163.894 107.839 164.054 108.075 164.232 108.297C164.281 108.367 164.232 108.233 164.154 108.177C164.104 108.104 164.048 108.036 163.986 107.973C163.861 107.839 163.719 107.723 163.563 107.628C163.275 107.438 162.948 107.316 162.606 107.269C162.274 107.227 161.937 107.261 161.62 107.367C161.324 107.431 160.839 107.804 161.162 107.529L162.007 106.727C162.563 106.178 163.127 105.586 163.669 104.988C165.871 102.392 167.887 99.6444 169.702 96.765C170.631 95.3007 171.554 93.8082 172.441 92.3017C173.328 90.7951 174.229 89.2323 175.017 87.8102L175.074 87.7116C175.634 86.6455 176.594 85.8455 177.744 85.4877C178.894 85.13 180.139 85.2436 181.205 85.8038C182.272 86.3639 183.071 87.3246 183.429 88.4746C183.787 89.6245 183.673 90.8695 183.113 91.9356V91.9004Z" fill="#313640"/>
<path opacity="0.3" d="M170.681 104.192C170.245 106.277 170.009 108.398 169.977 110.528C170.209 110.303 170.427 110.07 170.645 109.824C172.378 108.058 173.989 106.176 175.468 104.192C176.08 103.389 176.672 102.566 177.242 101.735C177.594 100.841 177.946 99.9469 178.213 99.0387C178.312 98.736 178.403 98.4474 178.495 98.1446C176.207 97.0323 172.053 98.1517 170.681 104.192Z" fill="#313640"/>
<path d="M159.148 93.7168L158.577 90.0771L154.051 92.1891C154.393 93.3919 154.85 94.5589 155.417 95.6739C155.548 95.9339 155.739 96.1592 155.974 96.3315C156.209 96.5038 156.481 96.6183 156.768 96.6656C157.056 96.713 157.35 96.6918 157.628 96.6039C157.905 96.516 158.158 96.3638 158.366 96.1597C158.687 95.8476 158.925 95.4616 159.062 95.0357C159.198 94.6097 159.227 94.1569 159.148 93.7168Z" fill="#FFAA00"/>
<path d="M156.03 87.6343L152.65 89.9575L154.051 92.161L158.578 90.0772L156.03 87.6343Z" fill="#FFAA00"/>
<path d="M168.144 253.813L163.097 252.659L165.124 240.811L170.172 241.965L168.144 253.813Z" fill="#FFAA00"/>
<path d="M162.964 252.032L168.638 253.335C168.686 253.343 168.731 253.361 168.772 253.387C168.813 253.414 168.848 253.448 168.876 253.488C168.903 253.528 168.922 253.573 168.932 253.62C168.942 253.668 168.943 253.717 168.934 253.764L168.18 258.319C168.156 258.438 168.109 258.55 168.04 258.65C167.972 258.75 167.885 258.835 167.783 258.901C167.681 258.966 167.568 259.011 167.448 259.032C167.329 259.053 167.207 259.05 167.089 259.023C165.125 258.537 164.21 258.206 161.711 257.615C160.176 257.263 155.91 256.453 153.791 255.968C151.672 255.482 152.214 253.398 153.157 253.412C157.381 253.483 160.345 252.926 162.027 252.138C162.318 251.996 162.649 251.959 162.964 252.032Z" fill="#313640"/>
<path opacity="0.2" d="M170.173 241.972L165.118 240.811L164.076 246.921L169.131 248.076L170.173 241.972Z" fill="#313640"/>
<path d="M183.436 131.113C183.436 131.113 175.094 165.82 172.595 180.47C169.863 196.507 162.246 244.964 162.246 244.964L171.497 247.076C171.497 247.076 183.035 200.858 187.189 185.307C191.694 168.411 201.029 147.995 201.029 131.423C195.44 131.437 183.436 131.113 183.436 131.113Z" fill="#313640"/>
<path d="M171.87 247.175L160.592 244.591L160.845 240.951L173.031 244.323L171.87 247.175Z" fill="#3D79F2"/>
<path d="M160.972 252.483C161.436 252.575 161.908 252.617 162.38 252.61C162.404 252.609 162.427 252.603 162.447 252.59C162.466 252.578 162.483 252.56 162.493 252.539C162.506 252.519 162.513 252.496 162.513 252.472C162.513 252.448 162.506 252.425 162.493 252.405C162.359 252.258 161.155 250.955 160.48 251.054C160.403 251.064 160.33 251.094 160.268 251.141C160.207 251.188 160.158 251.25 160.128 251.321C160.066 251.428 160.033 251.55 160.033 251.673C160.033 251.797 160.066 251.918 160.128 252.025C160.347 252.272 160.646 252.434 160.972 252.483ZM162.078 252.363C161.134 252.363 160.472 252.152 160.289 251.863C160.252 251.797 160.232 251.722 160.232 251.645C160.232 251.569 160.252 251.493 160.289 251.427C160.302 251.391 160.325 251.359 160.355 251.336C160.385 251.312 160.421 251.297 160.458 251.293C160.832 251.237 161.578 251.856 162.078 252.363Z" fill="#3D79F2"/>
<path d="M162.338 252.602H162.394C162.413 252.597 162.431 252.587 162.445 252.573C162.46 252.56 162.471 252.543 162.479 252.525C162.479 252.462 162.943 251.04 162.542 250.413C162.492 250.335 162.425 250.27 162.346 250.222C162.266 250.174 162.177 250.146 162.085 250.138C161.984 250.116 161.879 250.129 161.786 250.176C161.694 250.222 161.62 250.298 161.578 250.392C161.331 250.92 161.845 252.145 162.282 252.56C162.288 252.571 162.296 252.58 162.305 252.587C162.315 252.595 162.326 252.6 162.338 252.602ZM162.113 250.399C162.16 250.409 162.205 250.429 162.245 250.457C162.285 250.484 162.319 250.52 162.345 250.561C162.52 251.108 162.52 251.696 162.345 252.243C161.955 251.755 161.771 251.134 161.831 250.512C161.831 250.441 161.916 250.371 162.092 250.392L162.113 250.399Z" fill="#3D79F2"/>
<path d="M176.27 88.8733C176.554 88.0112 177.065 87.2414 177.749 86.6444C178.432 86.0474 179.264 85.6452 180.157 85.48C181.44 85.1978 182.74 85.0002 184.05 84.8886C187.976 84.7338 191.909 84.8043 195.828 85.0998C197.876 85.2336 199.967 85.5293 201.636 85.8038H201.692C202.128 85.8757 202.545 86.0344 202.919 86.2705C203.293 86.5066 203.615 86.8154 203.867 87.1785C204.119 87.5415 204.296 87.9515 204.387 88.3841C204.477 88.8168 204.48 89.2632 204.395 89.6969C202.961 96.6116 201.981 103.613 201.46 110.655C200.868 120.898 201.269 128.959 201.03 131.43L173.321 130.944C172.089 105.875 174.475 94.5405 176.27 88.8733Z" fill="white"/>
<path d="M195.046 84.5925C193.638 89.9992 184.739 99.5596 183.662 114.597C184.056 122.841 183.725 128.459 184.739 133.985L201.706 133.528C201.966 130.923 200.044 122.517 201.304 114.006C202.529 105.755 204.268 94.54 205.254 89.5205C205.344 89.0656 205.343 88.5972 205.249 88.1429C205.156 87.6886 204.973 87.2576 204.71 86.8751C204.448 86.4927 204.112 86.1666 203.721 85.9161C203.331 85.6655 202.895 85.4956 202.438 85.4162H202.374C200.614 85.1205 198.411 84.8178 196.25 84.67L195.046 84.5925Z" fill="#313640"/>
<path opacity="0.2" d="M199.002 125.418C198.974 125.417 198.948 125.411 198.923 125.398C198.899 125.386 198.878 125.369 198.861 125.347C197.096 123.018 195.713 120.423 194.763 117.66C194.75 117.616 194.754 117.568 194.775 117.528C194.797 117.487 194.833 117.456 194.876 117.441C194.922 117.428 194.971 117.433 195.013 117.455C195.055 117.478 195.087 117.516 195.101 117.561C196.037 120.285 197.401 122.842 199.142 125.136C199.17 125.173 199.182 125.22 199.176 125.267C199.169 125.313 199.145 125.354 199.107 125.382C199.076 125.403 199.039 125.416 199.002 125.418Z" fill="white"/>
<path opacity="0.3" d="M201.128 95.8425C199.917 100.771 200.332 107.592 201.339 113.816C202.374 106.832 203.775 97.7574 204.768 92.1465C203.592 91.344 202.085 91.9072 201.128 95.8425Z" fill="#313640"/>
<path d="M174.848 88.9718C175.163 88.0108 175.722 87.1479 176.469 86.4669C177.217 85.7859 178.128 85.31 179.114 85.0857C180.965 84.8287 182.829 84.6712 184.697 84.614C183.12 89.7251 184.042 104.692 184.739 116.498C182.627 122.447 182.789 126.819 182.754 133.986L171.145 132.972C169.878 106.706 173.109 93.7378 174.848 88.9718Z" fill="#313640"/>
<path d="M184.605 84.853C188.048 84.1068 188.688 82.037 188.498 79.6645C188.456 79.0827 188.376 78.5043 188.259 77.9327L192.617 74.4127L195.813 71.8572C194.869 75.6377 193.757 82.5298 196.277 85.1065C196.277 85.1065 194.088 88.5701 188.238 88.1477C183.289 87.8169 184.605 84.853 184.605 84.853Z" fill="#FFAA00"/>
<path d="M190.836 90.8866C190.836 90.8866 190.836 87.9369 189.745 87.3033C191.983 86.7687 194.036 85.6458 195.694 84.0508L197.475 84.7548C197.475 84.7548 196.82 88.1692 190.836 90.8866Z" fill="#EBEBEC"/>
<path d="M185.38 90.2811C185.543 89.5687 185.874 88.9056 186.345 88.3471C186.817 87.7887 187.415 87.3511 188.09 87.0709C186.372 86.557 186.323 84.1704 186.323 84.1704L184.641 84.4872C184.641 84.4872 182.916 87.6693 185.38 90.2811Z" fill="#EBEBEC"/>
<path opacity="0.2" d="M188.258 77.9328C188.375 78.5043 188.455 79.0828 188.497 79.6646C190.102 79.376 192.271 77.7075 192.524 76.0812C192.616 75.5397 192.647 74.9894 192.616 74.4409L188.258 77.9328Z" fill="#313640"/>
<path d="M182.38 60.678C181.878 61.6073 181.635 62.6545 181.678 63.7098C181.72 64.7652 182.045 65.7897 182.619 66.6761L186.069 62.3817L182.38 60.678Z" fill="#313640"/>
<path d="M196.297 65.4719C196.051 70.6182 196.171 73.6383 193.615 76.405C192.795 77.3122 191.742 77.9776 190.571 78.3293C189.4 78.6809 188.155 78.7055 186.971 78.4002C185.786 78.0949 184.708 77.4714 183.853 76.5973C182.998 75.7232 182.398 74.6318 182.119 73.4412C180.957 68.8863 181.549 61.2268 186.54 58.9388C187.608 58.4157 188.795 58.1825 189.981 58.2624C191.168 58.3424 192.313 58.7327 193.301 59.3944C194.289 60.056 195.086 60.9658 195.612 62.0324C196.138 63.099 196.374 64.2852 196.297 65.4719Z" fill="#FFAA00"/>
<path d="M199.466 60.1358C197.242 53.0113 175.059 49.3294 183.661 61.3818L193.095 60.0935L193.447 62.5082C193.927 64.4057 194.572 66.2573 195.376 68.0417L195.01 70.2311L195.418 73.7934C195.418 73.7934 199.34 69.4356 201.325 67.3799C204.268 64.3105 201.254 59.9598 199.466 60.1358Z" fill="#313640"/>
<path d="M182.564 61.5437C185.028 63.36 191.491 63.6979 191.491 63.6979C191.049 62.7486 190.373 61.9273 189.527 61.3114C192.11 62.9799 194.405 64.9088 198.721 65.0778C198.143 63.4832 197.247 62.0227 196.088 60.7847C194.928 59.5467 193.53 58.5571 191.976 57.8759C186.76 55.5456 177.939 58.1363 182.564 61.5437Z" fill="#313640"/>
<path d="M198.432 53.8279C198.432 53.8279 197.474 54.4756 197.256 56.7213C197.038 58.9671 199.319 61.8887 199.319 61.8887L199.882 60.4807C197.749 57.728 198.432 53.8279 198.432 53.8279Z" fill="#313640"/>
<path d="M197.741 69.323C197.304 70.3525 196.522 71.1984 195.531 71.7166C194.271 72.3361 193.602 71.1956 193.926 69.8017C194.214 68.5486 195.228 66.7111 196.509 66.6759C197.791 66.6407 198.291 68.0347 197.741 69.323Z" fill="#FFAA00"/>
<path d="M188.427 67.3519C188.427 67.7743 188.216 68.1193 187.948 68.1334C187.681 68.1475 187.449 67.8236 187.442 67.4294C187.435 67.0351 187.653 66.662 187.927 66.6479C188.202 66.6339 188.42 66.9366 188.427 67.3519Z" fill="#313640"/>
<path d="M183.746 67.5844C183.746 67.9997 183.535 68.3517 183.261 68.3658C182.986 68.3799 182.761 68.049 182.761 67.6618C182.761 67.2746 182.972 66.8944 183.239 66.8804C183.507 66.8663 183.704 67.169 183.746 67.5844Z" fill="#313640"/>
<path d="M187.097 72.6177C187.576 72.543 188.035 72.3723 188.446 72.1158C188.857 71.8594 189.212 71.5224 189.49 71.1252C189.508 71.0981 189.514 71.0651 189.508 71.0334C189.501 71.0017 189.482 70.974 189.455 70.9562C189.428 70.9385 189.395 70.9322 189.363 70.9388C189.332 70.9454 189.304 70.9644 189.286 70.9914C188.975 71.4144 188.572 71.761 188.107 72.0049C187.643 72.2489 187.129 72.3838 186.604 72.3994C186.576 72.4061 186.552 72.4219 186.534 72.4442C186.516 72.4666 186.507 72.4942 186.507 72.5226C186.507 72.5511 186.516 72.5787 186.534 72.6011C186.552 72.6234 186.576 72.6392 186.604 72.6458C186.787 72.6599 186.942 72.6388 187.097 72.6177Z" fill="#313640"/>
<path d="M190.554 65.5634C190.594 65.553 190.632 65.5363 190.666 65.5141C190.717 65.4728 190.748 65.4135 190.755 65.3489C190.762 65.2843 190.742 65.2197 190.702 65.1692C190.466 64.8603 190.157 64.6145 189.804 64.4536C189.45 64.2927 189.062 64.2217 188.674 64.2469C188.641 64.2494 188.609 64.2587 188.58 64.2742C188.551 64.2896 188.526 64.3109 188.505 64.3366C188.485 64.3624 188.47 64.3921 188.461 64.4239C188.453 64.4557 188.451 64.4889 188.456 64.5215C188.465 64.5857 188.498 64.6439 188.55 64.6835C188.601 64.723 188.666 64.7407 188.73 64.7327C189.03 64.7148 189.33 64.7695 189.605 64.892C189.879 65.0146 190.12 65.2014 190.307 65.4367C190.332 65.4794 190.368 65.5142 190.412 65.5367C190.455 65.5592 190.505 65.5685 190.554 65.5634Z" fill="#313640"/>
<path d="M181.635 66.1199C181.674 66.1132 181.712 66.0968 181.744 66.0723C181.776 66.0477 181.801 66.0157 181.818 65.9791C181.944 65.6859 182.137 65.4262 182.382 65.2209C182.626 65.0155 182.915 64.8702 183.226 64.7964C183.257 64.7913 183.288 64.7799 183.315 64.7629C183.342 64.7459 183.366 64.7236 183.384 64.6973C183.402 64.671 183.415 64.6414 183.422 64.61C183.429 64.5786 183.429 64.5463 183.423 64.5148C183.412 64.4504 183.377 64.3928 183.324 64.3545C183.271 64.3163 183.206 64.3005 183.141 64.3106C182.758 64.4029 182.403 64.5834 182.102 64.8376C181.801 65.0919 181.564 65.4128 181.409 65.7749C181.391 65.8152 181.384 65.8597 181.389 65.9036C181.394 65.9475 181.411 65.9893 181.437 66.0246C181.464 66.0599 181.5 66.0873 181.541 66.1041C181.582 66.1209 181.626 66.1263 181.67 66.1199H181.635Z" fill="#313640"/>
<path d="M206.042 88.4718C206.513 89.5278 206.914 90.4782 207.302 91.492C207.689 92.5057 208.076 93.4913 208.442 94.498C209.146 96.5185 209.85 98.5601 210.413 100.644C211.677 104.877 212.493 109.23 212.849 113.633C213.085 117.891 213.085 122.159 212.849 126.417C212.645 130.641 212.314 134.767 211.758 138.949C211.684 139.496 211.413 139.998 210.996 140.36C210.578 140.722 210.043 140.918 209.49 140.913C208.938 140.908 208.406 140.701 207.995 140.332C207.584 139.962 207.323 139.455 207.259 138.906C206.802 134.795 206.443 130.67 206.07 126.579C205.887 124.533 205.69 122.498 205.478 120.476C205.288 118.455 205.035 116.449 204.774 114.541C204.1 110.714 203.12 106.948 201.846 103.277C201.212 101.397 200.557 99.5105 199.86 97.6449C199.163 95.7793 198.417 93.8644 197.748 92.0974L197.706 91.9988C197.3 90.8997 197.333 89.6861 197.8 88.6111C198.266 87.536 199.13 86.6825 200.21 86.2286C201.29 85.7747 202.504 85.7553 203.599 86.1745C204.693 86.5937 205.583 87.4192 206.084 88.4788L206.042 88.4718Z" fill="#313640"/>
<path d="M207.329 138.59L204.394 139.998L209.371 141.786C209.371 141.786 212.743 140.716 211.159 138.864L210.272 138.576C208.829 138.097 208.118 138.146 207.329 138.59Z" fill="#FFAA00"/>
<path d="M202.713 143.159L207.972 144.158L209.373 141.751L204.395 139.969L202.713 143.159Z" fill="#FFAA00"/>
<path d="M123.073 21.2327H99.4541V22.0211H123.073V21.2327Z" fill="#3D79F2"/>
<path d="M86.3947 25.393L85.8174 24.858C86.9006 23.7053 88.2099 22.7884 89.6635 22.1646C91.117 21.5407 92.6836 21.2234 94.2654 21.2324V22.0138C92.7916 22.0055 91.3319 22.3013 89.9777 22.8827C88.6234 23.4642 87.4036 24.3187 86.3947 25.393Z" fill="#3D79F2"/>
<path d="M94.2949 23.9782H139.449C141.993 24.018 144.429 25.0058 146.282 26.7481C148.135 28.4904 149.271 30.8618 149.467 33.3977L151.178 60.4383L151.727 69.2102L142.406 60.4383H96.604C94.062 60.3968 91.627 59.4082 89.7755 57.6661C87.924 55.9239 86.7892 53.5536 86.5931 51.0188L85.4808 33.4188C85.386 32.2079 85.5442 30.9904 85.9453 29.8439C86.3463 28.6974 86.9815 27.6468 87.8104 26.7589C88.6393 25.8711 89.6439 25.1654 90.7602 24.6867C91.8766 24.2079 93.0803 23.9667 94.2949 23.9782Z" fill="#3D79F2"/>
<path d="M96.6803 36.8896H139.35C139.55 36.8882 139.748 36.8457 139.931 36.7647C140.114 36.6838 140.279 36.5661 140.415 36.4189C140.551 36.2718 140.655 36.0983 140.722 35.9092C140.788 35.7201 140.814 35.5195 140.8 35.3197C140.767 34.8962 140.576 34.5005 140.266 34.2101C139.956 33.9196 139.549 33.7555 139.124 33.7498H96.4621C96.2641 33.7549 96.0693 33.8002 95.8894 33.8829C95.7094 33.9655 95.5481 34.0838 95.4152 34.2305C95.2823 34.3773 95.1805 34.5494 95.116 34.7366C95.0515 34.9239 95.0256 35.1222 95.04 35.3197C95.0726 35.7372 95.2579 36.1281 95.5605 36.4177C95.8631 36.7073 96.2617 36.8753 96.6803 36.8896Z" fill="white"/>
<path d="M97.1518 44.1268H139.821C140.023 44.1272 140.223 44.0862 140.408 44.0061C140.593 43.9261 140.76 43.8088 140.898 43.6616C141.036 43.5143 141.142 43.3403 141.21 43.1502C141.278 42.9602 141.306 42.7582 141.293 42.5569C141.259 42.1334 141.069 41.7377 140.759 41.4472C140.449 41.1568 140.042 40.9926 139.617 40.9869H96.9406C96.7382 40.9844 96.5374 41.024 96.3512 41.1033C96.1649 41.1826 95.9973 41.2999 95.8588 41.4476C95.7204 41.5953 95.6143 41.7702 95.5472 41.9612C95.4801 42.1522 95.4535 42.355 95.4692 42.5569C95.5042 42.9809 95.696 43.3767 96.0071 43.667C96.3182 43.9573 96.7263 44.1212 97.1518 44.1268Z" fill="white"/>
<path d="M112.127 51.3921H140.287C140.49 51.3947 140.69 51.355 140.877 51.2757C141.063 51.1964 141.23 51.0792 141.369 50.9315C141.507 50.7838 141.613 50.6089 141.681 50.4179C141.748 50.2269 141.774 50.024 141.759 49.8222C141.735 49.3943 141.551 48.9909 141.243 48.6932C140.935 48.3954 140.526 48.2254 140.097 48.2171H111.937C111.735 48.2156 111.535 48.2559 111.349 48.3356C111.163 48.4153 110.996 48.5325 110.858 48.68C110.72 48.8275 110.613 49.002 110.546 49.1925C110.478 49.383 110.451 49.5854 110.466 49.787C110.487 50.2155 110.671 50.6198 110.979 50.9179C111.288 51.216 111.698 51.3855 112.127 51.3921Z" fill="white"/>
<path d="M110.311 69.2103H65.1562C63.9417 69.1961 62.7376 69.4346 61.6203 69.9108C60.503 70.3869 59.4969 71.0903 58.666 71.9761C57.8351 72.8619 57.1976 73.9109 56.7939 75.0564C56.3902 76.2019 56.2291 77.4188 56.321 78.6298L57.5741 98.4474L58.1232 107.219L66.3389 98.4474H112.141C113.355 98.4596 114.558 98.2196 115.674 97.7427C116.79 97.2657 117.794 96.5622 118.624 95.6767C119.454 94.7912 120.091 93.743 120.495 92.5985C120.898 91.454 121.06 90.2381 120.969 89.0279L120.315 78.6298C120.119 76.0963 118.985 73.7269 117.135 71.9849C115.285 70.2429 112.851 69.2536 110.311 69.2103Z" fill="#3D79F2"/>
<path opacity="0.5" d="M110.311 69.2103H65.1562C63.9417 69.1961 62.7376 69.4346 61.6203 69.9108C60.503 70.3869 59.4969 71.0903 58.666 71.9761C57.8351 72.8619 57.1976 73.9109 56.7939 75.0564C56.3902 76.2019 56.2291 77.4188 56.321 78.6298L57.5741 98.4474L58.1232 107.219L66.3389 98.4474H112.141C113.355 98.4596 114.558 98.2196 115.674 97.7427C116.79 97.2657 117.794 96.5622 118.624 95.6767C119.454 94.7912 120.091 93.743 120.495 92.5985C120.898 91.454 121.06 90.2381 120.969 89.0279L120.315 78.6298C120.119 76.0963 118.985 73.7269 117.135 71.9849C115.285 70.2429 112.851 69.2536 110.311 69.2103Z" fill="white"/>
<path d="M109.557 82.1216H66.8803C66.4573 82.1125 66.0526 81.9471 65.7445 81.6571C65.4363 81.3672 65.2466 80.9733 65.2118 80.5516C65.1972 80.3501 65.2246 80.1476 65.292 79.9571C65.3595 79.7666 65.4657 79.5921 65.6039 79.4447C65.7421 79.2972 65.9094 79.1799 66.0951 79.1003C66.2809 79.0206 66.4811 78.9802 66.6832 78.9817H109.346C109.77 78.9874 110.178 79.1516 110.488 79.442C110.797 79.7325 110.988 80.1282 111.021 80.5516C111.035 80.7524 111.007 80.9538 110.939 81.1434C110.872 81.3329 110.766 81.5067 110.629 81.6538C110.492 81.8009 110.326 81.9184 110.141 81.9988C109.957 82.0793 109.758 82.1211 109.557 82.1216Z" fill="white"/>
<path d="M95.4853 89.3654H67.3253C66.9006 89.3597 66.4933 89.1956 66.1834 88.9051C65.8734 88.6147 65.6831 88.219 65.6498 87.7955C65.6363 87.5942 65.6643 87.3922 65.7322 87.2021C65.8 87.0121 65.9063 86.838 66.0443 86.6908C66.1823 86.5435 66.3491 86.4263 66.5343 86.3462C66.7196 86.2662 66.9193 86.2251 67.1211 86.2256H95.2812C95.7051 86.2314 96.1116 86.3958 96.4204 86.6864C96.7292 86.977 96.918 87.3727 96.9496 87.7955C96.9652 87.9967 96.9389 88.199 96.8722 88.3895C96.8056 88.58 96.7 88.7546 96.5624 88.9022C96.4247 89.0498 96.2579 89.1672 96.0725 89.2469C95.8871 89.3266 95.6871 89.367 95.4853 89.3654Z" fill="white"/>
<path d="M99.5606 107.219H144.708C147.251 107.259 149.688 108.247 151.541 109.989C153.394 111.732 154.53 114.103 154.726 116.639L156.064 137.759L156.62 146.531L147.299 137.759H101.49C98.9463 137.719 96.5096 136.731 94.6566 134.989C92.8036 133.247 91.6678 130.875 91.4716 128.339L90.7324 116.611C90.6458 115.403 90.8104 114.19 91.216 113.049C91.6215 111.908 92.2591 110.863 93.0886 109.981C93.9181 109.098 94.9214 108.397 96.0353 107.922C97.1492 107.447 98.3496 107.208 99.5606 107.219Z" fill="#3D79F2"/>
<path d="M119.717 121.377C119.782 122.269 120.18 123.104 120.832 123.717C121.484 124.33 122.342 124.675 123.237 124.685C123.664 124.692 124.088 124.609 124.482 124.442C124.875 124.275 125.229 124.028 125.522 123.717C125.815 123.406 126.04 123.037 126.182 122.634C126.324 122.231 126.381 121.803 126.349 121.377C126.282 120.484 125.884 119.649 125.232 119.035C124.581 118.422 123.723 118.074 122.829 118.061C122.4 118.053 121.975 118.136 121.581 118.303C121.186 118.47 120.831 118.717 120.538 119.029C120.245 119.342 120.021 119.712 119.879 120.116C119.738 120.52 119.683 120.95 119.717 121.377Z" fill="white"/>
<path d="M108.656 122.496C108.721 123.389 109.119 124.225 109.77 124.839C110.422 125.453 111.281 125.8 112.176 125.812C112.603 125.817 113.027 125.733 113.42 125.566C113.813 125.398 114.167 125.15 114.459 124.838C114.751 124.526 114.975 124.157 115.116 123.754C115.258 123.35 115.314 122.922 115.28 122.496C115.212 121.604 114.813 120.77 114.162 120.157C113.511 119.543 112.655 119.195 111.76 119.18C111.333 119.175 110.909 119.259 110.516 119.426C110.123 119.594 109.769 119.842 109.477 120.154C109.185 120.466 108.961 120.835 108.82 121.238C108.678 121.642 108.623 122.07 108.656 122.496Z" fill="white"/>
<path d="M131.016 124.158C131.084 125.049 131.483 125.884 132.134 126.497C132.785 127.11 133.641 127.458 134.536 127.473C134.963 127.479 135.387 127.395 135.78 127.227C136.173 127.059 136.527 126.812 136.819 126.5C137.111 126.188 137.335 125.818 137.476 125.415C137.618 125.012 137.674 124.584 137.64 124.158C137.575 123.265 137.177 122.428 136.526 121.815C135.874 121.201 135.016 120.853 134.12 120.842C133.693 120.838 133.27 120.922 132.877 121.09C132.485 121.258 132.131 121.506 131.839 121.818C131.548 122.129 131.324 122.498 131.182 122.901C131.04 123.304 130.983 123.732 131.016 124.158Z" fill="white"/>
</svg>
