<svg width="112" height="1600" viewBox="0 0 112 1600" fill="none" xmlns="http://www.w3.org/2000/svg">
<rect width="56" height="800" transform="scale(2)" fill="#313640"/>
<path fill-rule="evenodd" clip-rule="evenodd" d="M56.0002 88.0001C47.1637 88.0001 40.0002 80.8366 40.0002 72.0001C40.0002 63.1636 47.1637 56.0001 56.0002 56.0001C64.8367 56.0001 72.0002 63.1636 72.0002 72.0001C72.0002 80.8366 64.8367 88.0001 56.0002 88.0001ZM57.0477 40.0167C38.5466 39.4263 23.4266 54.546 24.0173 73.0471C24.552 89.802 38.1981 103.448 54.9533 103.983C73.4544 104.574 88.5744 89.4538 87.9837 70.9527C87.4486 54.1978 73.8026 40.5518 57.0477 40.0167Z" fill="#FF5166"/>
<mask id="mask0_25_604" style="mask-type:alpha" maskUnits="userSpaceOnUse" x="24" y="40" width="65" height="65">
<path fill-rule="evenodd" clip-rule="evenodd" d="M56.0002 88.0001C47.1637 88.0001 40.0002 80.8366 40.0002 72.0001C40.0002 63.1636 47.1637 56.0001 56.0002 56.0001C64.8367 56.0001 72.0002 63.1636 72.0002 72.0001C72.0002 80.8366 64.8367 88.0001 56.0002 88.0001ZM57.0477 40.0167C38.5466 39.4263 23.4266 54.546 24.0173 73.0471C24.552 89.802 38.1981 103.448 54.9533 103.983C73.4544 104.574 88.5744 89.4538 87.9837 70.9527C87.4486 54.1978 73.8026 40.5518 57.0477 40.0167Z" fill="white"/>
</mask>
<g mask="url(#mask0_25_604)">
<path fill-rule="evenodd" clip-rule="evenodd" d="M88 46.4L81.6 40L56 65.6L30.4 40L24 46.4L49.6 72L24 97.6L30.4 104L56 78.4L81.6 104L88 97.6L62.4 72L88 46.4Z" fill="white"/>
</g>
<path d="M74 226L65.32 217.32M70 206C70 214.837 62.8366 222 54 222C45.1634 222 38 214.837 38 206C38 197.163 45.1634 190 54 190C62.8366 190 70 197.163 70 206Z" stroke="white" stroke-width="2" stroke-linecap="round" stroke-linejoin="round"/>
<path d="M48 304H48.02M56 304H56.02M64 304H64.02M47.8 320C51.6172 321.958 56.0082 322.488 60.1818 321.496C64.3554 320.503 68.0371 318.052 70.5635 314.584C73.0899 311.117 74.2948 306.861 73.9612 302.584C73.6275 298.307 71.7772 294.29 68.7436 291.256C65.7101 288.223 61.6928 286.373 57.4157 286.039C53.1386 285.705 48.8829 286.91 45.4156 289.436C41.9483 291.963 39.4974 295.645 38.5044 299.818C37.5115 303.992 38.0419 308.383 40 312.2L36 324L47.8 320Z" stroke="white" stroke-width="2" stroke-linecap="round" stroke-linejoin="round"/>
<circle cx="4" cy="4" r="5" transform="matrix(-2 0 0 2 44 276)" fill="#FF5166" stroke="white" stroke-width="2"/>
<path d="M76 390L58.018 401.454C57.4078 401.808 56.7147 401.995 56.009 401.995C55.3033 401.995 54.6102 401.808 54 401.454L36 390M40 384H72C74.2091 384 76 385.791 76 388V412C76 414.209 74.2091 416 72 416H40C37.7909 416 36 414.209 36 412V388C36 385.791 37.7909 384 40 384Z" stroke="white" stroke-width="2" stroke-linecap="round" stroke-linejoin="round"/>
<path d="M52 499.99L48 503.99M39.172 492.818C38.4218 493.568 38.0002 494.586 38 495.646L38 509.99C38 511.051 38.4214 512.069 39.1716 512.819C39.9217 513.569 40.9391 513.99 42 513.99L56.344 513.99C57.4048 513.99 58.422 513.568 59.172 512.818L74.58 497.41C75.4833 496.501 75.9903 495.272 75.9903 493.99C75.9903 492.709 75.4833 491.479 74.58 490.57L61.42 477.41C60.511 476.507 59.2815 476 58 476C56.7185 476 55.489 476.507 54.58 477.41L39.172 492.818Z" stroke="white" stroke-width="2" stroke-linecap="round" stroke-linejoin="round"/>
<path d="M62 588H68M62 596H68M42.34 598C42.7523 596.828 43.5182 595.813 44.532 595.095C45.5459 594.377 46.7576 593.991 48 593.991C49.2424 593.991 50.4541 594.377 51.468 595.095C52.4818 595.813 53.2477 596.828 53.66 598M52 590C52 592.209 50.2091 594 48 594C45.7909 594 44 592.209 44 590C44 587.791 45.7909 586 48 586C50.2091 586 52 587.791 52 590ZM38 576H74C76.2091 576 78 577.791 78 580V604C78 606.209 76.2091 608 74 608H38C35.7909 608 34 606.209 34 604V580C34 577.791 35.7909 576 38 576Z" stroke="white" stroke-width="2" stroke-linecap="round" stroke-linejoin="round"/>
<path d="M56 690C61.5228 690 66 685.523 66 680C66 674.477 61.5228 670 56 670C50.4772 670 46 674.477 46 680C46 685.523 50.4772 690 56 690ZM56 690C60.2435 690 64.3131 691.686 67.3137 694.686C70.3143 697.687 72 701.757 72 706M56 690C51.7565 690 47.6869 691.686 44.6863 694.686C41.6857 697.687 40 701.757 40 706" stroke="white" stroke-width="2" stroke-linecap="round" stroke-linejoin="round"/>
<path d="M50.18 778C50.6502 776.663 51.5783 775.536 52.7999 774.818C54.0215 774.1 55.4578 773.838 56.8544 774.077C58.2509 774.317 59.5176 775.043 60.4302 776.127C61.3427 777.211 61.8421 778.583 61.84 780C61.84 784 55.84 786 55.84 786M56 794H56.02M76 784C76 795.046 67.0457 804 56 804C44.9543 804 36 795.046 36 784C36 772.954 44.9543 764 56 764C67.0457 764 76 772.954 76 784Z" stroke="white" stroke-width="2" stroke-linecap="round" stroke-linejoin="round"/>
<path d="M60 860V868C60 869.061 60.4214 870.078 61.1716 870.828C61.9217 871.579 62.9391 872 64 872H72M52 874H48M64 882H48M64 890H48M62 860H44C42.9391 860 41.9217 860.421 41.1716 861.172C40.4214 861.922 40 862.939 40 864V896C40 897.061 40.4214 898.078 41.1716 898.828C41.9217 899.579 42.9391 900 44 900H68C69.0609 900 70.0783 899.579 70.8284 898.828C71.5786 898.078 72 897.061 72 896V870L62 860Z" stroke="white" stroke-width="2" stroke-linecap="round" stroke-linejoin="round"/>
<path d="M76 976H64L60 982H52L48 976H36M36 976L42.9 962.22C43.2312 961.554 43.7417 960.993 44.3741 960.601C45.0065 960.208 45.7358 960 46.48 960H65.52C66.2642 960 66.9935 960.208 67.6259 960.601C68.2584 960.993 68.7688 961.554 69.1 962.22L76 976V988C76 989.061 75.5786 990.078 74.8284 990.828C74.0783 991.579 73.0609 992 72 992H40C38.9391 992 37.9217 991.579 37.1716 990.828C36.4214 990.078 36 989.061 36 988V976Z" stroke="white" stroke-width="2" stroke-linecap="round" stroke-linejoin="round"/>
<path d="M8 944C8 939.582 11.5817 936 16 936H58C62.4183 936 66 939.582 66 944V964C66 968.418 62.4183 972 58 972H16C11.5817 972 8 968.418 8 964V944Z" fill="#FF5166"/>
<path d="M20.2539 959.773H20.4883C21.5664 959.773 22.4648 959.633 23.1836 959.352C23.9102 959.062 24.4883 958.664 24.918 958.156C25.3477 957.648 25.6562 957.051 25.8438 956.363C26.0312 955.676 26.125 954.93 26.125 954.125V951.184C26.125 950.488 26.0508 949.879 25.9023 949.355C25.7617 948.824 25.5586 948.383 25.293 948.031C25.0352 947.672 24.7344 947.402 24.3906 947.223C24.0547 947.043 23.6914 946.953 23.3008 946.953C22.8711 946.953 22.4844 947.051 22.1406 947.246C21.8047 947.434 21.5195 947.695 21.2852 948.031C21.0586 948.359 20.8828 948.746 20.7578 949.191C20.6406 949.629 20.582 950.098 20.582 950.598C20.582 951.066 20.6367 951.52 20.7461 951.957C20.8633 952.387 21.0352 952.77 21.2617 953.105C21.4883 953.441 21.7734 953.707 22.1172 953.902C22.4609 954.098 22.8633 954.195 23.3242 954.195C23.7617 954.195 24.1641 954.113 24.5312 953.949C24.8984 953.777 25.2188 953.547 25.4922 953.258C25.7656 952.969 25.9805 952.645 26.1367 952.285C26.293 951.926 26.3789 951.559 26.3945 951.184L27.4727 951.512C27.4727 952.105 27.3477 952.691 27.0977 953.27C26.8555 953.84 26.5156 954.363 26.0781 954.84C25.6484 955.309 25.1445 955.684 24.5664 955.965C23.9961 956.246 23.375 956.387 22.7031 956.387C21.8906 956.387 21.1719 956.234 20.5469 955.93C19.9297 955.617 19.4141 955.195 19 954.664C18.5938 954.133 18.2891 953.523 18.0859 952.836C17.8828 952.148 17.7812 951.426 17.7812 950.668C17.7812 949.848 17.9062 949.078 18.1562 948.359C18.4062 947.641 18.7695 947.008 19.2461 946.461C19.7227 945.906 20.3008 945.477 20.9805 945.172C21.668 944.859 22.4453 944.703 23.3125 944.703C24.2344 944.703 25.043 944.883 25.7383 945.242C26.4336 945.602 27.0195 946.098 27.4961 946.73C27.9727 947.363 28.332 948.098 28.5742 948.934C28.8164 949.77 28.9375 950.668 28.9375 951.629V952.625C28.9375 953.633 28.8477 954.605 28.668 955.543C28.4883 956.473 28.1953 957.336 27.7891 958.133C27.3906 958.922 26.8633 959.617 26.207 960.219C25.5586 960.812 24.7617 961.277 23.8164 961.613C22.8789 961.941 21.7773 962.105 20.5117 962.105H20.2539V959.773ZM33.8945 959.773H34.1289C35.207 959.773 36.1055 959.633 36.8242 959.352C37.5508 959.062 38.1289 958.664 38.5586 958.156C38.9883 957.648 39.2969 957.051 39.4844 956.363C39.6719 955.676 39.7656 954.93 39.7656 954.125V951.184C39.7656 950.488 39.6914 949.879 39.543 949.355C39.4023 948.824 39.1992 948.383 38.9336 948.031C38.6758 947.672 38.375 947.402 38.0312 947.223C37.6953 947.043 37.332 946.953 36.9414 946.953C36.5117 946.953 36.125 947.051 35.7812 947.246C35.4453 947.434 35.1602 947.695 34.9258 948.031C34.6992 948.359 34.5234 948.746 34.3984 949.191C34.2812 949.629 34.2227 950.098 34.2227 950.598C34.2227 951.066 34.2773 951.52 34.3867 951.957C34.5039 952.387 34.6758 952.77 34.9023 953.105C35.1289 953.441 35.4141 953.707 35.7578 953.902C36.1016 954.098 36.5039 954.195 36.9648 954.195C37.4023 954.195 37.8047 954.113 38.1719 953.949C38.5391 953.777 38.8594 953.547 39.1328 953.258C39.4062 952.969 39.6211 952.645 39.7773 952.285C39.9336 951.926 40.0195 951.559 40.0352 951.184L41.1133 951.512C41.1133 952.105 40.9883 952.691 40.7383 953.27C40.4961 953.84 40.1562 954.363 39.7188 954.84C39.2891 955.309 38.7852 955.684 38.207 955.965C37.6367 956.246 37.0156 956.387 36.3438 956.387C35.5312 956.387 34.8125 956.234 34.1875 955.93C33.5703 955.617 33.0547 955.195 32.6406 954.664C32.2344 954.133 31.9297 953.523 31.7266 952.836C31.5234 952.148 31.4219 951.426 31.4219 950.668C31.4219 949.848 31.5469 949.078 31.7969 948.359C32.0469 947.641 32.4102 947.008 32.8867 946.461C33.3633 945.906 33.9414 945.477 34.6211 945.172C35.3086 944.859 36.0859 944.703 36.9531 944.703C37.875 944.703 38.6836 944.883 39.3789 945.242C40.0742 945.602 40.6602 946.098 41.1367 946.73C41.6133 947.363 41.9727 948.098 42.2148 948.934C42.457 949.77 42.5781 950.668 42.5781 951.629V952.625C42.5781 953.633 42.4883 954.605 42.3086 955.543C42.1289 956.473 41.8359 957.336 41.4297 958.133C41.0312 958.922 40.5039 959.617 39.8477 960.219C39.1992 960.812 38.4023 961.277 37.457 961.613C36.5195 961.941 35.418 962.105 34.1523 962.105H33.8945V959.773ZM56.4414 952.648V955.191H44.7461V952.648H56.4414ZM51.9648 947.867V960.289H49.2344V947.867H51.9648Z" fill="white"/>
<path d="M40.0061 1076C39.6277 1076 39.2568 1075.89 38.9364 1075.69C38.6159 1075.49 38.3592 1075.2 38.1958 1074.86C38.0325 1074.52 37.9694 1074.14 38.0138 1073.76C38.0582 1073.39 38.2083 1073.03 38.4467 1072.74L58.2392 1052.35C58.3876 1052.17 58.5899 1052.06 58.8129 1052.02C59.0359 1051.98 59.2662 1052.01 59.4661 1052.12C59.6661 1052.23 59.8237 1052.4 59.9132 1052.61C60.0027 1052.81 60.0186 1053.05 59.9585 1053.26L56.12 1065.3C56.0068 1065.6 55.9688 1065.93 56.0092 1066.25C56.0496 1066.57 56.1673 1066.88 56.352 1067.14C56.5368 1067.41 56.7832 1067.63 57.0701 1067.78C57.357 1067.92 57.6759 1068 57.9992 1068H71.9939C72.3723 1068 72.7432 1068.11 73.0636 1068.31C73.3841 1068.51 73.6408 1068.8 73.8042 1069.14C73.9675 1069.48 74.0306 1069.86 73.9862 1070.24C73.9418 1070.61 73.7917 1070.97 73.5533 1071.26L53.7608 1091.65C53.6124 1091.83 53.4101 1091.94 53.1871 1091.98C52.9641 1092.02 52.7338 1091.99 52.5339 1091.88C52.3339 1091.77 52.1763 1091.6 52.0868 1091.39C51.9973 1091.19 51.9814 1090.95 52.0415 1090.74L55.88 1078.7C55.9932 1078.4 56.0312 1078.07 55.9908 1077.75C55.9504 1077.43 55.8327 1077.12 55.648 1076.86C55.4632 1076.59 55.2167 1076.37 54.9299 1076.22C54.643 1076.08 54.3241 1076 54.0008 1076H40.0061Z" stroke="white" stroke-width="2" stroke-linecap="round" stroke-linejoin="round"/>
<path d="M68 1176L76 1168L68 1160M44 1160L36 1168L44 1176M61 1152L51 1184" stroke="white" stroke-width="2" stroke-linecap="round" stroke-linejoin="round"/>
<path d="M74.93 1260.7L64.625 1255.65C64.5574 1255.63 64.4959 1255.59 64.4461 1255.54C64.3963 1255.49 64.3598 1255.43 64.34 1255.36L59.255 1245.05C58.61 1243.7 57.305 1243 56 1243C54.695 1243 53.39 1243.7 52.745 1245.05L47.645 1255.36C47.6265 1255.43 47.5924 1255.49 47.5455 1255.54C47.4987 1255.59 47.4403 1255.63 47.375 1255.66L37.055 1260.73C36.437 1261.03 35.9159 1261.5 35.5514 1262.08C35.1868 1262.66 34.9935 1263.34 34.9935 1264.02C34.9935 1264.71 35.1868 1265.38 35.5514 1265.96C35.9159 1266.55 36.437 1267.01 37.055 1267.31L47.375 1272.35C47.525 1272.4 47.6 1272.5 47.66 1272.62L52.745 1282.94C53.39 1284.29 54.695 1285 56.045 1285C56.729 1285 57.3998 1284.81 57.9789 1284.45C58.558 1284.08 59.0215 1283.56 59.315 1282.94L64.355 1272.62C64.4 1272.49 64.505 1272.4 64.64 1272.35L74.945 1267.26C75.559 1266.95 76.0762 1266.49 76.4378 1265.91C76.7995 1265.32 76.9912 1264.65 76.9912 1263.97C76.9912 1263.29 76.7995 1262.62 76.4378 1262.03C76.0762 1261.45 75.559 1260.99 74.945 1260.68L74.93 1260.7ZM67.235 1261.43L62.48 1265.59C61.52 1266.43 60.8612 1267.55 60.605 1268.8L59.405 1275.01C59.3881 1275.1 59.3461 1275.19 59.2837 1275.25C59.2214 1275.32 59.1411 1275.37 59.0522 1275.4C58.9632 1275.42 58.869 1275.42 58.7802 1275.39C58.6915 1275.37 58.6118 1275.32 58.55 1275.25L54.41 1270.48C53.5684 1269.52 52.4351 1268.87 51.185 1268.62L44.975 1267.41C44.8885 1267.38 44.8092 1267.34 44.7454 1267.28C44.6817 1267.22 44.6359 1267.14 44.6129 1267.05C44.5899 1266.97 44.5904 1266.88 44.6146 1266.79C44.6387 1266.7 44.6855 1266.63 44.75 1266.56L49.505 1262.41C50.4594 1261.57 51.1128 1260.44 51.365 1259.2L52.58 1252.99C52.5989 1252.9 52.6412 1252.82 52.7025 1252.76C52.7638 1252.69 52.8417 1252.64 52.928 1252.62C53.0143 1252.59 53.1056 1252.59 53.1923 1252.62C53.279 1252.64 53.3577 1252.69 53.42 1252.75L57.62 1257.52C58.46 1258.45 59.57 1259.14 60.845 1259.38L67.055 1260.58C67.415 1260.68 67.565 1261.15 67.235 1261.43Z" fill="white"/>
<path d="M48 1344H44C42.9391 1344 41.9217 1344.42 41.1716 1345.17C40.4214 1345.92 40 1346.94 40 1348V1376C40 1377.06 40.4214 1378.08 41.1716 1378.83C41.9217 1379.58 42.9391 1380 44 1380H68C69.0609 1380 70.0783 1379.58 70.8284 1378.83C71.5786 1378.08 72 1377.06 72 1376V1375M64 1344H68C68.7015 1344 69.3904 1344.19 69.9977 1344.54C70.605 1344.89 71.1093 1345.39 71.46 1346M48 1372H50M50 1340H62C63.1046 1340 64 1340.9 64 1342V1346C64 1347.1 63.1046 1348 62 1348H50C48.8954 1348 48 1347.1 48 1346V1342C48 1340.9 48.8954 1340 50 1340ZM74.756 1361.25C75.5527 1360.46 76.0003 1359.37 76.0003 1358.25C76.0003 1357.12 75.5527 1356.04 74.756 1355.24C73.9593 1354.45 72.8787 1354 71.752 1354C70.6253 1354 69.5447 1354.45 68.748 1355.24L60.728 1363.27C60.2525 1363.74 59.9044 1364.33 59.716 1364.98L58.042 1370.72C57.9918 1370.89 57.9888 1371.07 58.0333 1371.24C58.0778 1371.42 58.1681 1371.58 58.2949 1371.7C58.4217 1371.83 58.5802 1371.92 58.7538 1371.96C58.9275 1372.01 59.1099 1372.01 59.282 1371.96L65.022 1370.28C65.6673 1370.09 66.2548 1369.75 66.73 1369.27L74.756 1361.25Z" stroke="white" stroke-width="2" stroke-linecap="round" stroke-linejoin="round"/>
<path d="M56.4391 1436H55.5609C54.5021 1436 53.4866 1436.42 52.7379 1437.17C51.9893 1437.92 51.5687 1438.94 51.5687 1440V1440.36C51.5679 1441.06 51.3831 1441.75 51.0328 1442.36C50.6824 1442.96 50.1788 1443.47 49.5726 1443.82L48.7142 1444.32C48.1073 1444.67 47.4189 1444.86 46.7181 1444.86C46.0174 1444.86 45.3289 1444.67 44.722 1444.32L44.4226 1444.16C43.5065 1443.63 42.4182 1443.49 41.3965 1443.76C40.3749 1444.03 39.5033 1444.7 38.9733 1445.62L38.5341 1446.38C38.0057 1447.3 37.8623 1448.39 38.1355 1449.41C38.4087 1450.44 39.0761 1451.31 39.9913 1451.84L40.2907 1452.04C40.8941 1452.39 41.3958 1452.89 41.7459 1453.49C42.0961 1454.1 42.2826 1454.78 42.2868 1455.48V1456.5C42.2896 1457.2 42.1064 1457.9 41.7559 1458.51C41.4054 1459.12 40.8999 1459.63 40.2907 1459.98L39.9913 1460.16C39.0761 1460.69 38.4087 1461.56 38.1355 1462.59C37.8623 1463.61 38.0057 1464.7 38.5341 1465.62L38.9733 1466.38C39.5033 1467.3 40.3749 1467.97 41.3965 1468.24C42.4182 1468.51 43.5065 1468.37 44.4226 1467.84L44.722 1467.68C45.3289 1467.33 46.0174 1467.14 46.7181 1467.14C47.4189 1467.14 48.1073 1467.33 48.7142 1467.68L49.5726 1468.18C50.1788 1468.53 50.6824 1469.04 51.0328 1469.64C51.3831 1470.25 51.5679 1470.94 51.5687 1471.64V1472C51.5687 1473.06 51.9893 1474.08 52.7379 1474.83C53.4866 1475.58 54.5021 1476 55.5609 1476H56.4391C57.4979 1476 58.5134 1475.58 59.2621 1474.83C60.0107 1474.08 60.4313 1473.06 60.4313 1472V1471.64C60.4321 1470.94 60.6169 1470.25 60.9672 1469.64C61.3176 1469.04 61.8212 1468.53 62.4274 1468.18L63.2858 1467.68C63.8927 1467.33 64.5811 1467.14 65.2819 1467.14C65.9826 1467.14 66.6711 1467.33 67.278 1467.68L67.5774 1467.84C68.4935 1468.37 69.5818 1468.51 70.6035 1468.24C71.6251 1467.97 72.4967 1467.3 73.0267 1466.38L73.4659 1465.6C73.9943 1464.68 74.1377 1463.59 73.8645 1462.57C73.5913 1461.54 72.9239 1460.67 72.0087 1460.14L71.7093 1459.98C71.1001 1459.63 70.5946 1459.12 70.2441 1458.51C69.8936 1457.9 69.7104 1457.2 69.7132 1456.5V1455.5C69.7104 1454.8 69.8936 1454.1 70.2441 1453.49C70.5946 1452.88 71.1001 1452.37 71.7093 1452.02L72.0087 1451.84C72.9239 1451.31 73.5913 1450.44 73.8645 1449.41C74.1377 1448.39 73.9943 1447.3 73.4659 1446.38L73.0267 1445.62C72.4967 1444.7 71.6251 1444.03 70.6035 1443.76C69.5818 1443.49 68.4935 1443.63 67.5774 1444.16L67.278 1444.32C66.6711 1444.67 65.9826 1444.86 65.2819 1444.86C64.5811 1444.86 63.8927 1444.67 63.2858 1444.32L62.4274 1443.82C61.8212 1443.47 61.3176 1442.96 60.9672 1442.36C60.6169 1441.75 60.4321 1441.06 60.4313 1440.36V1440C60.4313 1438.94 60.0107 1437.92 59.2621 1437.17C58.5134 1436.42 57.4979 1436 56.4391 1436Z" stroke="white" stroke-width="2" stroke-linecap="round" stroke-linejoin="round"/>
<path d="M56 1462C59.3072 1462 61.9883 1459.31 61.9883 1456C61.9883 1452.69 59.3072 1450 56 1450C52.6928 1450 50.0117 1452.69 50.0117 1456C50.0117 1459.31 52.6928 1462 56 1462Z" stroke="white" stroke-width="2" stroke-linecap="round" stroke-linejoin="round"/>
<path d="M56 1560V1552M56 1544H56.02M76 1552C76 1563.05 67.0457 1572 56 1572C44.9543 1572 36 1563.05 36 1552C36 1540.95 44.9543 1532 56 1532C67.0457 1532 76 1540.95 76 1552Z" stroke="white" stroke-width="2" stroke-linecap="round" stroke-linejoin="round"/>
</svg>
