<svg width="40" height="40" viewBox="0 0 40 40" fill="none" xmlns="http://www.w3.org/2000/svg">
<path fill-rule="evenodd" clip-rule="evenodd" d="M20.0001 28C15.5819 28 12.0001 24.4183 12.0001 20C12.0001 15.5818 15.5819 12 20.0001 12C24.4184 12 28.0001 15.5818 28.0001 20C28.0001 24.4183 24.4184 28 20.0001 28ZM20.5238 4.00836C11.2733 3.71316 3.71329 11.273 4.00865 20.5236C4.27601 28.901 11.099 35.7242 19.4766 35.9917C28.7272 36.2869 36.2872 28.7269 35.9918 19.4764C35.7243 11.0989 28.9013 4.27588 20.5238 4.00836Z" fill="#FF5166"/>
<mask id="mask0_204_418" style="mask-type:alpha" maskUnits="userSpaceOnUse" x="4" y="4" width="33" height="32">
<path fill-rule="evenodd" clip-rule="evenodd" d="M20.0001 28C15.5819 28 12.0001 24.4183 12.0001 20C12.0001 15.5818 15.5819 12 20.0001 12C24.4184 12 28.0001 15.5818 28.0001 20C28.0001 24.4183 24.4184 28 20.0001 28ZM20.5238 4.00836C11.2733 3.71316 3.71329 11.273 4.00865 20.5236C4.27601 28.901 11.099 35.7242 19.4766 35.9917C28.7272 36.2869 36.2872 28.7269 35.9918 19.4764C35.7243 11.0989 28.9013 4.27588 20.5238 4.00836Z" fill="white"/>
</mask>
<g mask="url(#mask0_204_418)">
<path fill-rule="evenodd" clip-rule="evenodd" d="M36 7.2L32.8 4L20 16.8L7.2 4L4 7.2L16.8 20L4 32.8L7.2 36L20 23.2L32.8 36L36 32.8L23.2 20L36 7.2Z" fill="white"/>
</g>
</svg>
